# Blender 4.2.0
# www.blender.org
mtllib labyrinth_small.mtl
o Plane
v 0.713113 -2.307883 0.000068
v 0.841772 -2.307883 0.000068
v 0.713113 -2.179224 0.000068
v 0.713113 -0.749414 0.000068
v 0.841772 -0.749414 0.000068
v 0.713113 0.809141 0.000068
v 0.841772 0.809141 0.000068
v 0.713113 2.367610 0.000068
v 0.841772 2.496183 0.000068
v -4.090782 2.496183 0.000069
v -3.962122 2.367524 0.000069
v -2.532313 2.496183 0.000069
v -2.532313 2.367524 0.000069
v -2.403653 2.367610 0.000069
v -4.090782 0.937714 0.000069
v -3.962122 0.937714 0.000069
v -2.532313 0.809055 0.000069
v -2.403653 0.809055 0.000069
v -0.716696 0.809140 0.000068
v -0.845356 0.809055 0.000068
v -3.962122 -0.749328 0.000069
v -4.090782 -0.749328 0.000069
v -2.403739 -0.620755 0.000069
v -2.403739 -0.749414 0.000069
v -0.716696 -0.749414 0.000068
v -0.845356 -0.620755 0.000068
v -4.090782 -2.307797 0.000069
v -3.962122 -2.199574 0.000069
v -2.532313 -2.179224 0.000069
v -0.845270 -2.179224 0.000068
v -0.845270 -2.307883 0.000068
v 0.841772 -2.307883 1.199999
v 0.713113 -2.179224 1.199999
v 0.713113 -2.307883 1.199999
v 0.841772 -0.749414 1.199999
v 0.713113 -0.749414 1.199999
v 0.841772 0.809141 1.199999
v 0.713113 0.809141 1.199999
v 0.841772 2.496183 1.199999
v 0.713113 2.367610 1.199999
v -3.962122 2.367524 1.200000
v -4.090782 2.496183 1.200000
v -2.532313 2.367524 1.200000
v -2.403653 2.367610 1.200000
v -2.532313 2.496183 1.200000
v -3.962122 0.937714 1.200000
v -4.090782 0.937714 1.200000
v -2.532313 0.809055 1.200000
v -2.403653 0.809055 1.200000
v -0.845356 0.809055 1.200000
v -0.716696 0.809140 1.199999
v -3.962122 -0.749328 1.200000
v -4.090782 -0.749328 1.200000
v -2.403739 -0.749414 1.200000
v -2.403739 -0.620755 1.200000
v -0.716696 -0.749414 1.199999
v -0.845356 -0.620755 1.200000
v -3.962122 -2.199574 1.200000
v -4.090782 -2.307797 1.200000
v -0.845270 -2.307883 1.200000
v -0.845270 -2.179224 1.200000
v -0.716696 -0.620755 0.000068
v -0.716696 -0.620755 1.199999
v 0.713113 -0.620755 0.000068
v 0.841772 -0.620755 0.000068
v 0.841772 -0.620755 1.199999
v 0.713113 -0.620755 1.199999
vn -0.0000 -0.0000 1.0000
vn -0.0007 1.0000 -0.0000
vn -0.0000 -1.0000 -0.0000
vn -0.0000 1.0000 -0.0000
vn -1.0000 -0.0000 -0.0000
vn 1.0000 -0.0000 -0.0000
vn -0.0142 0.9999 -0.0000
vn -0.0065 0.9999 0.0092
vn -0.0000 -0.0000 -1.0000
vt 0.545455 1.000000
vt 0.272727 0.818182
vt 0.363636 0.909091
vt 0.454545 1.000000
vt 0.363636 1.000000
vt 0.272727 1.000000
vt 0.272727 0.727273
vt 0.545455 0.909091
vt 0.363636 0.727273
vt 0.363636 0.818182
vt 0.454545 0.727273
vt 0.454545 0.818182
vt 0.545455 0.727273
vt 0.545455 0.818182
vt 0.000000 0.000000
s 0
f 32/1/1 33/1/1 34/1/1
f 43/2/1 44/2/1 45/2/1
f 20/3/2 51/3/2 19/3/2
f 35/4/1 33/1/1 32/1/1
f 37/5/1 36/4/1 35/4/1
f 37/5/1 40/6/1 38/5/1
f 41/7/1 45/2/1 42/7/1
f 40/6/3 14/2/3 8/6/3
f 34/1/1 61/8/1 60/8/1
f 41/7/1 47/9/1 46/9/1
f 49/10/1 43/2/1 48/10/1
f 12/2/4 39/6/4 9/6/4
f 53/11/3 22/11/3 21/11/3
f 23/12/5 54/12/5 55/12/5
f 36/4/5 4/4/5 33/1/5
f 35/4/6 32/1/6 5/4/6
f 38/5/5 6/5/5 36/4/5
f 37/5/6 35/4/6 7/5/6
f 40/6/5 8/6/5 38/5/5
f 39/6/6 37/5/6 9/6/6
f 46/9/6 16/9/6 41/7/6
f 47/9/5 42/7/5 15/9/5
f 49/10/6 18/10/6 44/2/6
f 48/10/5 43/2/5 17/10/5
f 45/2/1 40/6/1 39/6/1
f 41/7/3 11/7/3 43/2/3
f 42/7/4 45/2/4 10/7/4
f 52/11/1 47/9/1 53/11/1
f 47/9/5 22/11/5 53/11/5
f 58/13/6 28/13/6 52/11/6
f 59/13/5 53/11/5 27/13/5
f 60/8/3 31/8/3 34/1/3
f 61/8/4 33/1/4 30/8/4
f 61/8/4 30/8/4 29/14/4
f 33/1/5 4/4/5 3/1/5
f 32/1/6 2/1/6 5/4/6
f 36/4/5 6/5/5 4/4/5
f 35/4/6 5/4/6 7/5/6
f 38/5/5 8/6/5 6/5/5
f 37/5/6 7/5/6 9/6/6
f 41/7/6 16/9/6 11/7/6
f 42/7/5 10/7/5 15/9/5
f 44/2/6 18/10/6 14/2/6
f 43/2/5 13/2/5 17/10/5
f 43/2/3 11/7/3 13/2/3
f 45/2/4 12/2/4 10/7/4
f 21/11/6 46/9/6 52/11/6
f 49/10/3 17/10/3 18/10/3
f 52/11/6 28/13/6 21/11/6
f 53/11/5 22/11/5 27/13/5
f 34/1/3 31/8/3 1/1/3
f 33/1/4 3/1/4 30/8/4
f 51/3/1 57/15/1 56/15/1
f 57/15/1 54/12/1 56/15/1
f 63/15/6 19/3/6 51/3/6
f 26/15/5 50/3/5 20/3/5
f 23/12/4 57/15/4 26/15/4
f 56/15/3 24/12/3 25/15/3
f 25/15/3 36/4/3 56/15/3
f 63/15/4 64/15/4 62/15/4
f 63/15/1 36/4/1 67/15/1
f 3/1/6 34/1/6 1/1/6
f 32/1/3 1/1/3 2/1/3
f 58/13/1 53/11/1 59/13/1
f 31/8/3 59/13/3 27/13/3
f 20/3/2 50/3/2 51/3/2
f 35/4/1 36/4/1 33/1/1
f 37/5/1 38/5/1 36/4/1
f 37/5/1 39/6/1 40/6/1
f 41/7/1 43/2/1 45/2/1
f 40/6/3 44/2/3 14/2/3
f 34/1/1 33/1/1 61/8/1
f 41/7/1 42/7/1 47/9/1
f 49/10/1 44/2/1 43/2/1
f 12/2/4 45/2/4 39/6/4
f 53/11/3 21/11/3 52/11/3
f 23/12/5 24/12/5 54/12/5
f 45/2/1 44/2/1 40/6/1
f 52/11/1 46/9/1 47/9/1
f 47/9/5 15/9/5 22/11/5
f 28/13/7 58/13/7 29/14/7
f 58/13/8 61/8/8 29/14/8
f 21/11/6 16/9/6 46/9/6
f 49/10/3 48/10/3 17/10/3
f 25/15/9 64/15/9 4/4/9
f 51/3/1 50/3/1 57/15/1
f 57/15/1 55/12/1 54/12/1
f 63/15/6 62/15/6 19/3/6
f 26/15/5 57/15/5 50/3/5
f 23/12/4 55/12/4 57/15/4
f 56/15/3 54/12/3 24/12/3
f 25/15/3 4/4/3 36/4/3
f 63/15/4 67/15/4 64/15/4
f 63/15/1 56/15/1 36/4/1
f 3/1/6 33/1/6 34/1/6
f 32/1/3 34/1/3 1/1/3
f 58/13/1 52/11/1 53/11/1
f 59/13/1 60/8/1 58/13/1
f 60/8/1 61/8/1 58/13/1
f 31/8/3 60/8/3 59/13/3
f 29/14/9 30/8/9 31/8/9
f 30/8/9 1/1/9 31/8/9
f 6/15/9 7/15/9 5/15/9
f 12/2/9 9/15/9 14/2/9
f 18/10/9 13/2/9 14/2/9
f 15/9/9 11/7/9 16/9/9
f 22/15/9 28/15/9 27/15/9
f 24/12/9 26/15/9 25/15/9
f 26/15/9 19/3/9 25/15/9
f 25/15/9 62/15/9 64/15/9
f 31/8/9 27/13/9 29/14/9
f 27/13/9 28/13/9 29/14/9
f 30/8/9 3/1/9 1/1/9
f 2/15/9 1/15/9 3/15/9
f 2/15/9 3/15/9 5/15/9
f 3/15/9 4/15/9 5/15/9
f 6/15/9 8/15/9 7/15/9
f 8/15/9 9/15/9 7/15/9
f 5/15/9 4/15/9 6/15/9
f 9/15/9 8/15/9 14/2/9
f 14/2/9 13/2/9 12/2/9
f 13/2/9 11/7/9 12/2/9
f 11/7/9 10/7/9 12/2/9
f 18/10/9 17/10/9 13/2/9
f 16/9/9 21/11/9 22/11/9
f 15/9/9 10/7/9 11/7/9
f 16/9/9 22/11/9 15/9/9
f 22/15/9 21/15/9 28/15/9
f 24/12/9 23/12/9 26/15/9
f 26/15/9 20/3/9 19/3/9
l 57 63
l 65 66
l 66 67
